# xmcd
#
# Track frame offsets:
#	150
#	18350
#	37197
#	55060
#	69462
#	85420
#	101667
#	118117
#	134767
#	149645
#	166357
#	184557
#	203407
#	221267
#	235670
#	251630
#	267880
#	284327
#	300980
#	315855
#
# Disc length: 4433 seconds
#
# Revision: 2
# Processed by: cddbd v1.5.2PL0 Copyright (c) Steve Scherf et al.
# Submitted via: audiograbber 1.83.01
#
DISCID=1c114f14
DTITLE=THC0107 - THC0107
DYEAR=2001
DGENRE=Karaoke
TTITLE0=Tim McGraw  - Grown Men Don't Cry (vocals)
TTITLE1=Brad Paisley - Two People Fell In Love (vocals)
TTITLE2=Chris Cagle -  Laredo  (vocals)
TTITLE3=Jamie O'neal  -  When I Think About Angels (vocals)
TTITLE4=Rascal Flatts - While You Loved Me (vocals)
TTITLE5=Lee Ann Womack -  Why They Call It Falling (vocals)
TTITLE6=Tracy Byrd - A Good Way To Get On My Bad Side (vocals)
TTITLE7=Trisha Yearwood -  I Would've Loved You Anyway (vocals)
TTITLE8=Tracy Lawrence - Unforgiven (vocals)
TTITLE9=Jo Dee Messina - Downtime (vocals)
TTITLE10=Tim McGraw - Grown Men Don't Cry
TTITLE11=Brad Paisley - Two People Fell In Love
TTITLE12=Chris Cagle - Laredo
TTITLE13=Jamie O'neal - When I Think About Angels
TTITLE14=Rascal Flatts - While You Loved Me
TTITLE15=Lee Ann Womack - Why They Call It Falling
TTITLE16=Tracy Byrd - A Good Way To Get On My Bad Side
TTITLE17=Trisha Yearwood - I Would've Loved You Anyway
TTITLE18=Tracy Lawrence - Unforgiven
TTITLE19=Jo Dee Messina - Downtime
EXTD=
EXTT0=
EXTT1=
EXTT2=
EXTT3=
EXTT4=
EXTT5=
EXTT6=
EXTT7=
EXTT8=
EXTT9=
EXTT10=
EXTT11=
EXTT12=
EXTT13=
EXTT14=
EXTT15=
EXTT16=
EXTT17=
EXTT18=
EXTT19=
PLAYORDER=
